<svg width="80" height="80" viewBox="0 0 80 80" fill="none" xmlns="http://www.w3.org/2000/svg">
<circle cx="40" cy="40" r="40" fill="url(#paint0_linear_1127_2846)"/>
<path d="M16.1482 35.6504V41.9879H19.8217V43.1951H14.6601V35.6504H16.1482ZM20.3477 43.1951V35.6504H25.8423V36.8575H21.8358V38.7307H25.6238V39.9378H21.8358V41.9879H25.8423V43.1951H20.3477ZM28.321 43.1951V36.8575H26.0004V35.6504H32.1402V36.8575H29.8092V43.1951H28.321ZM35.5425 40.0627L34.5851 39.8858C33.3571 39.6465 32.3269 39.0117 32.3269 37.7004C32.3269 36.1811 33.9399 35.5151 35.3344 35.5151C36.8954 35.5151 38.2274 36.4308 38.3002 37.8773H36.8641C36.7497 36.9928 35.9796 36.7014 35.2719 36.7014C34.5851 36.7014 33.815 36.9616 33.815 37.638C33.815 38.1687 34.2625 38.4601 34.8661 38.5746L35.8547 38.7515C37.0827 38.97 38.4355 39.4591 38.4355 41.0201C38.4355 42.5707 36.8954 43.3304 35.376 43.3304C33.5236 43.3304 32.2957 42.3313 32.1604 40.7079H33.5965C33.763 41.811 34.5331 42.144 35.428 42.144C36.0941 42.144 36.937 41.9047 36.937 41.093C36.937 40.4478 36.3438 40.2084 35.5425 40.0627ZM43.1075 43.1951V36.8575H40.7869V35.6504H46.9267V36.8575H44.5957V43.1951H43.1075ZM45.7924 43.1951L48.6022 35.6504H50.1007L52.9209 43.1951H51.3079L50.7771 41.6653H47.8425L47.3118 43.1951H45.7924ZM49.3098 37.4715L48.2692 40.4478H50.3505L49.3098 37.4715ZM54.9353 35.6504V41.9879H58.6088V43.1951H53.4471V35.6504H54.9353ZM60.6229 35.6504V39.1053L63.7032 35.6504H65.4411L62.6626 38.6891L65.6493 43.1951H63.8906L61.6636 39.7921L60.6229 40.9265V43.1951H59.1348V35.6504H60.6229Z" fill="#08060C"/>
<defs>
<linearGradient id="paint0_linear_1127_2846" x1="4.60517" y1="-106.909" x2="123.749" y2="-88.187" gradientUnits="userSpaceOnUse">
<stop stop-color="#0A0816"/>
<stop offset="0.369792" stop-color="#DEDCFF"/>
<stop offset="0.369792" stop-color="#DEDCFF"/>
<stop offset="1" stop-color="#333357"/>
</linearGradient>
</defs>
</svg>
